<svg xmlns="http://www.w3.org/2000/svg" width="250" height="250.000" viewBox="0 0 250 250.000"><circle cx="105.252" cy="129.569" r="20.269" fill="#ffffe7" stroke="#000" stroke-width="0.75"/><circle cx="129.851" cy="175.974" r="20.269" fill="#ffffe7" stroke="#000" stroke-width="0.75"/><circle cx="144.748" cy="120.431" r="20.269" fill="#ffffe7" stroke="#000" stroke-width="0.75"/><circle cx="165.016" cy="155.805" r="20.269" fill="#ffffe7" stroke="#000" stroke-width="0.75"/><circle cx="120.149" cy="74.026" r="20.269" fill="#ffffe7" stroke="#000" stroke-width="0.75"/><circle cx="185.285" cy="120.697" r="20.269" fill="#ffffe7" stroke="#000" stroke-width="0.75"/><circle cx="90.266" cy="167.236" r="20.269" fill="#ffffe7" stroke="#000" stroke-width="0.75"/><circle cx="64.944" cy="54.785" r="20.269" fill="#ffffe7" stroke="#000" stroke-width="0.75"/><circle cx="64.715" cy="129.303" r="20.269" fill="#ffffe7" stroke="#000" stroke-width="0.75"/><circle cx="185.056" cy="195.215" r="20.269" fill="#ffffe7" stroke="#000" stroke-width="0.75"/><circle cx="181.444" cy="48.529" r="20.269" fill="#ffffe7" stroke="#000" stroke-width="0.75"/><circle cx="68.556" cy="201.471" r="20.269" fill="#ffffe7" stroke="#000" stroke-width="0.75"/><circle cx="101.790" cy="37.882" r="20.269" fill="#ffffe7" stroke="#000" stroke-width="0.75"/><circle cx="44.674" cy="89.893" r="20.269" fill="#ffffe7" stroke="#000" stroke-width="0.75"/><circle cx="24.405" cy="125.000" r="20.269" fill="#ffffe7" stroke="#000" stroke-width="0.75"/><circle cx="159.734" cy="82.764" r="20.269" fill="#ffffe7" stroke="#000" stroke-width="0.75"/><circle cx="148.210" cy="212.118" r="20.269" fill="#ffffe7" stroke="#000" stroke-width="0.75"/><circle cx="84.984" cy="94.195" r="20.269" fill="#ffffe7" stroke="#000" stroke-width="0.75"/><circle cx="107.671" cy="212.118" r="20.269" fill="#ffffe7" stroke="#000" stroke-width="0.75"/><circle cx="48.286" cy="166.364" r="20.269" fill="#ffffe7" stroke="#000" stroke-width="0.75"/><circle cx="225.595" cy="125.000" r="20.269" fill="#ffffe7" stroke="#000" stroke-width="0.75"/><circle cx="201.714" cy="83.636" r="20.269" fill="#ffffe7" stroke="#000" stroke-width="0.75"/><circle cx="142.329" cy="37.882" r="20.269" fill="#ffffe7" stroke="#000" stroke-width="0.75"/><circle cx="205.326" cy="160.107" r="20.269" fill="#ffffe7" stroke="#000" stroke-width="0.75"/><polygon points="187.000,232.387 249.000,125.000 187.000,17.613 63.000,17.613 1.000,125.000 63.000,232.387" fill="none" stroke="#000" stroke-width="1.5"/></svg>