<svg xmlns="http://www.w3.org/2000/svg" width="250" height="250.000" viewBox="0 0 250 250.000"><polygon points="139.745,121.819 158.669,92.544 110.471,102.895" fill="#ffffe7" stroke="#000" stroke-width="0.75"/><polygon points="37.320,212.680 72.178,212.680 37.320,177.821" fill="#ffffe7" stroke="#000" stroke-width="0.75"/><polygon points="86.620,72.182 61.972,47.533 61.971,96.830" fill="#ffffe7" stroke="#000" stroke-width="0.75"/><polygon points="61.969,61.971 37.320,37.322 37.320,86.619" fill="#ffffe7" stroke="#000" stroke-width="0.75"/><polygon points="170.790,72.180 205.648,72.180 170.790,37.322" fill="#ffffe7" stroke="#000" stroke-width="0.75"/><polygon points="99.680,150.158 105.101,115.723 65.246,144.736" fill="#ffffe7" stroke="#000" stroke-width="0.75"/><polygon points="82.857,174.595 107.820,150.265 58.527,149.631" fill="#ffffe7" stroke="#000" stroke-width="0.75"/><polygon points="205.650,37.320 170.791,37.320 205.649,72.179" fill="#ffffe7" stroke="#000" stroke-width="0.75"/><polygon points="96.833,61.973 72.185,86.621 121.482,86.622" fill="#ffffe7" stroke="#000" stroke-width="0.75"/><polygon points="185.411,173.967 210.060,149.319 160.763,149.318" fill="#ffffe7" stroke="#000" stroke-width="0.75"/><polygon points="159.388,142.935 125.306,150.254 166.706,177.016" fill="#ffffe7" stroke="#000" stroke-width="0.75"/><polygon points="139.748,121.820 169.022,140.744 158.672,92.546" fill="#ffffe7" stroke="#000" stroke-width="0.75"/><polygon points="121.486,72.180 156.345,72.180 121.486,37.322" fill="#ffffe7" stroke="#000" stroke-width="0.75"/><polygon points="191.331,180.981 166.857,156.160 166.510,205.456" fill="#ffffe7" stroke="#000" stroke-width="0.75"/><polygon points="188.032,171.351 212.680,196.000 212.680,146.703" fill="#ffffe7" stroke="#000" stroke-width="0.75"/><polygon points="194.495,212.679 194.495,177.821 159.637,212.680" fill="#ffffe7" stroke="#000" stroke-width="0.75"/><polygon points="86.623,37.321 86.624,72.179 121.482,37.320" fill="#ffffe7" stroke="#000" stroke-width="0.75"/><polygon points="170.789,72.183 170.789,107.042 205.648,72.183" fill="#ffffe7" stroke="#000" stroke-width="0.75"/><polygon points="185.412,124.668 160.763,149.316 210.060,149.317" fill="#ffffe7" stroke="#000" stroke-width="0.75"/><polygon points="146.136,61.968 170.785,37.320 121.488,37.320" fill="#ffffe7" stroke="#000" stroke-width="0.75"/><polygon points="188.032,89.803 212.680,114.452 212.680,65.155" fill="#ffffe7" stroke="#000" stroke-width="0.75"/><polygon points="37.321,86.622 61.969,111.271 61.970,61.974" fill="#ffffe7" stroke="#000" stroke-width="0.75"/><polygon points="94.109,212.680 128.906,210.604 92.034,177.883" fill="#ffffe7" stroke="#000" stroke-width="0.75"/><polygon points="136.075,72.184 117.152,101.458 165.350,91.107" fill="#ffffe7" stroke="#000" stroke-width="0.75"/><polygon points="146.138,61.970 170.787,86.619 170.787,37.322" fill="#ffffe7" stroke="#000" stroke-width="0.75"/><polygon points="102.088,111.272 126.737,86.623 77.440,86.623" fill="#ffffe7" stroke="#000" stroke-width="0.75"/><polygon points="86.621,37.320 51.762,37.320 86.620,72.179" fill="#ffffe7" stroke="#000" stroke-width="0.75"/><polygon points="188.029,89.805 163.381,114.454 212.678,114.454" fill="#ffffe7" stroke="#000" stroke-width="0.75"/><polygon points="210.062,114.456 175.203,114.456 210.062,149.315" fill="#ffffe7" stroke="#000" stroke-width="0.75"/><polygon points="61.972,199.168 94.105,212.679 75.483,167.034" fill="#ffffe7" stroke="#000" stroke-width="0.75"/><polygon points="117.565,176.394 115.541,141.594 82.766,178.418" fill="#ffffe7" stroke="#000" stroke-width="0.75"/><polygon points="37.320,121.482 72.178,121.481 37.319,86.624" fill="#ffffe7" stroke="#000" stroke-width="0.75"/><polygon points="117.620,176.391 152.416,174.315 115.544,141.594" fill="#ffffe7" stroke="#000" stroke-width="0.75"/><polygon points="135.075,148.153 169.157,140.834 127.756,114.071" fill="#ffffe7" stroke="#000" stroke-width="0.75"/><polygon points="96.835,61.970 121.484,86.619 121.484,37.322" fill="#ffffe7" stroke="#000" stroke-width="0.75"/><polygon points="61.968,153.167 37.320,128.518 37.320,177.815" fill="#ffffe7" stroke="#000" stroke-width="0.75"/><polygon points="161.673,173.766 126.876,175.841 163.748,208.563" fill="#ffffe7" stroke="#000" stroke-width="0.75"/><polygon points="126.872,175.842 92.075,177.917 128.947,210.638" fill="#ffffe7" stroke="#000" stroke-width="0.75"/><polygon points="58.472,149.666 86.653,129.149 37.956,121.485" fill="#ffffe7" stroke="#000" stroke-width="0.75"/><polygon points="128.950,210.640 163.746,208.564 126.875,175.843" fill="#ffffe7" stroke="#000" stroke-width="0.75"/><polygon points="37.321,177.818 61.969,202.467 61.970,153.170" fill="#ffffe7" stroke="#000" stroke-width="0.75"/><polygon points="76.853,127.604 108.984,114.086 63.336,95.473" fill="#ffffe7" stroke="#000" stroke-width="0.75"/><polygon points="101.716,137.248 134.973,147.691 112.159,103.990" fill="#ffffe7" stroke="#000" stroke-width="0.75"/><polygon points="212.681,212.681 212.681,37.319 37.319,37.319 37.319,212.681" fill="none" stroke="#000" stroke-width="1.5"/></svg>