<svg xmlns="http://www.w3.org/2000/svg" width="250" height="250.000" viewBox="0 0 250 250.000"><circle cx="124.863" cy="125.079" r="11.354" fill="#ffffe7" stroke="#000" stroke-width="0.75"/><circle cx="136.354" cy="43.374" r="11.354" fill="#ffffe7" stroke="#000" stroke-width="0.75"/><circle cx="178.659" cy="155.980" r="11.354" fill="#ffffe7" stroke="#000" stroke-width="0.75"/><circle cx="212.721" cy="175.646" r="11.354" fill="#ffffe7" stroke="#000" stroke-width="0.75"/><circle cx="147.571" cy="164.411" r="11.354" fill="#ffffe7" stroke="#000" stroke-width="0.75"/><circle cx="125.000" cy="63.040" r="11.354" fill="#ffffe7" stroke="#000" stroke-width="0.75"/><circle cx="37.279" cy="175.646" r="11.354" fill="#ffffe7" stroke="#000" stroke-width="0.75"/><circle cx="136.217" cy="144.745" r="11.354" fill="#ffffe7" stroke="#000" stroke-width="0.75"/><circle cx="113.646" cy="82.705" r="11.354" fill="#ffffe7" stroke="#000" stroke-width="0.75"/><circle cx="170.279" cy="125.079" r="11.354" fill="#ffffe7" stroke="#000" stroke-width="0.75"/><circle cx="102.284" cy="103.741" r="11.354" fill="#ffffe7" stroke="#000" stroke-width="0.75"/><circle cx="167.305" cy="175.646" r="11.354" fill="#ffffe7" stroke="#000" stroke-width="0.75"/><circle cx="159.062" cy="82.705" r="11.354" fill="#ffffe7" stroke="#000" stroke-width="0.75"/><circle cx="125.000" cy="23.708" r="11.354" fill="#ffffe7" stroke="#000" stroke-width="0.75"/><circle cx="92.647" cy="148.126" r="11.354" fill="#ffffe7" stroke="#000" stroke-width="0.75"/><circle cx="79.721" cy="125.079" r="11.354" fill="#ffffe7" stroke="#000" stroke-width="0.75"/><circle cx="71.341" cy="155.980" r="11.354" fill="#ffffe7" stroke="#000" stroke-width="0.75"/><circle cx="127.837" cy="175.646" r="11.354" fill="#ffffe7" stroke="#000" stroke-width="0.75"/><circle cx="136.354" cy="82.705" r="11.354" fill="#ffffe7" stroke="#000" stroke-width="0.75"/><circle cx="102.292" cy="127.568" r="11.354" fill="#ffffe7" stroke="#000" stroke-width="0.75"/><circle cx="190.013" cy="136.314" r="11.354" fill="#ffffe7" stroke="#000" stroke-width="0.75"/><circle cx="158.925" cy="144.745" r="11.354" fill="#ffffe7" stroke="#000" stroke-width="0.75"/><circle cx="147.708" cy="63.040" r="11.354" fill="#ffffe7" stroke="#000" stroke-width="0.75"/><circle cx="105.266" cy="173.157" r="11.354" fill="#ffffe7" stroke="#000" stroke-width="0.75"/><circle cx="82.695" cy="175.646" r="11.354" fill="#ffffe7" stroke="#000" stroke-width="0.75"/><circle cx="79.584" cy="102.371" r="11.354" fill="#ffffe7" stroke="#000" stroke-width="0.75"/><circle cx="114.911" cy="152.599" r="11.354" fill="#ffffe7" stroke="#000" stroke-width="0.75"/><circle cx="201.367" cy="155.980" r="11.354" fill="#ffffe7" stroke="#000" stroke-width="0.75"/><circle cx="170.416" cy="102.371" r="11.354" fill="#ffffe7" stroke="#000" stroke-width="0.75"/><circle cx="147.571" cy="125.079" r="11.354" fill="#ffffe7" stroke="#000" stroke-width="0.75"/><circle cx="59.987" cy="136.314" r="11.354" fill="#ffffe7" stroke="#000" stroke-width="0.75"/><circle cx="102.292" cy="63.040" r="11.354" fill="#ffffe7" stroke="#000" stroke-width="0.75"/><circle cx="113.646" cy="43.374" r="11.354" fill="#ffffe7" stroke="#000" stroke-width="0.75"/><circle cx="190.013" cy="175.646" r="11.354" fill="#ffffe7" stroke="#000" stroke-width="0.75"/><circle cx="59.987" cy="175.646" r="11.354" fill="#ffffe7" stroke="#000" stroke-width="0.75"/><circle cx="90.938" cy="82.705" r="11.354" fill="#ffffe7" stroke="#000" stroke-width="0.75"/><circle cx="147.708" cy="102.371" r="11.354" fill="#ffffe7" stroke="#000" stroke-width="0.75"/><circle cx="48.633" cy="155.980" r="11.354" fill="#ffffe7" stroke="#000" stroke-width="0.75"/><circle cx="125.000" cy="102.371" r="11.354" fill="#ffffe7" stroke="#000" stroke-width="0.75"/><polygon points="232.387,187.000 125.000,1.000 17.613,187.000" fill="none" stroke="#000" stroke-width="1.5"/></svg>